<svg width="160" height="42" viewBox="0 0 160 42" fill="none" xmlns="http://www.w3.org/2000/svg">
<g id="Layer_1" clip-path="url(#clip0_74_400)">
<path id="Vector" d="M43.4992 12.3927H47.9289L47.796 14.5203C49.8263 12.1734 52.3291 11.7054 55.0904 12.1953C57.167 12.4965 59.0618 13.5361 60.4209 15.1199C61.7752 16.8219 62.4831 18.9408 62.421 21.1068C62.3589 23.2729 61.5309 25.3486 60.0813 26.9718C58.5466 28.576 56.4539 29.5429 54.2266 29.677C53.0872 29.839 51.925 29.715 50.8466 29.3164C49.7681 28.9179 48.8081 28.2575 48.0544 27.3958V37.5442H43.4844L43.4992 12.3927ZM47.9289 20.8959C47.9289 23.8205 49.8854 25.7288 52.8903 25.7288C53.5317 25.7436 54.1694 25.6274 54.7635 25.3875C55.3576 25.1476 55.8955 24.7891 56.3436 24.3343C56.7918 23.8795 57.1405 23.3383 57.3682 22.7442C57.5959 22.1501 57.6976 21.516 57.6671 20.8813C57.6768 20.2544 57.5614 19.6318 57.3275 19.0492C57.0935 18.4666 56.7457 17.9355 56.3038 17.4864C55.862 17.0373 55.335 16.6791 54.753 16.4323C54.171 16.1856 53.5455 16.0551 52.9124 16.0484C52.2546 16.0066 51.5952 16.1027 50.9774 16.3303C50.3596 16.5579 49.7972 16.912 49.3269 17.3694C48.8567 17.8269 48.489 18.3774 48.2482 18.9851C48.0073 19.5927 47.8985 20.2438 47.9289 20.8959Z" fill="#11284B"/>
<path id="Vector_2" d="M110.132 29.0192L109.445 28.2076C108.249 26.7965 108.847 24.859 109.969 23.8207C110.802 23.1121 111.831 22.6687 112.923 22.5485C113.019 22.5485 113.115 22.5485 113.314 22.49L112.908 22.1464C112.314 21.7263 111.822 21.1801 111.468 20.5476C111.114 19.9151 110.907 19.2124 110.863 18.4907C110.842 17.7166 110.978 16.9463 111.263 16.2254C111.549 15.5045 111.977 14.8477 112.524 14.2939C113.86 12.9426 115.672 12.1564 117.581 12.1005C119.525 11.9198 121.47 12.439 123.059 13.5628C124.159 12.159 125.702 11.8958 127.437 12.1005V15.2371H126.264C125.282 15.2371 124.935 15.6904 125.23 16.5678C125.599 17.5022 125.713 18.5161 125.561 19.5081C125.41 20.5 124.998 21.435 124.366 22.2195C123.838 22.8626 123.181 23.3898 122.436 23.7675C121.691 24.1451 120.875 24.365 120.04 24.413C118.607 24.5665 117.146 24.508 115.699 24.5885C115.07 24.6344 114.447 24.7396 113.838 24.9029C113.628 24.9521 113.442 25.0697 113.308 25.2368C113.174 25.4039 113.101 25.6107 113.1 25.8241C113.08 25.9927 113.115 26.1631 113.198 26.3112C113.282 26.4594 113.41 26.578 113.565 26.6503C113.697 26.7179 113.847 26.741 113.993 26.7161C115.371 26.4097 116.783 26.2843 118.194 26.3432C120.083 26.2776 121.969 26.5248 123.776 27.0743C125.159 27.4366 126.342 28.3246 127.068 29.5456C128.442 32.1046 127.297 35.0658 124.462 36.338C122.913 36.9898 121.251 37.3398 119.567 37.3689C117.731 37.4973 115.886 37.3792 114.082 37.018C112.729 36.7714 111.46 36.1932 110.39 35.3363C109.536 34.6264 108.991 33.6171 108.87 32.519C108.749 31.421 109.061 30.3191 109.741 29.4433C109.866 29.2897 109.984 29.1216 110.11 28.9607M118.231 33.9398C119.575 34.0275 120.922 33.8073 122.166 33.2964C122.467 33.1965 122.73 33.0091 122.921 32.7585C123.112 32.508 123.222 32.2062 123.237 31.8926C123.273 31.5617 123.2 31.228 123.028 30.9418C122.856 30.6556 122.595 30.4325 122.284 30.306C121.772 30.0704 121.231 29.9032 120.675 29.8088C119.188 29.5896 117.678 29.5675 116.186 29.7431C115.404 29.7834 114.644 30.0118 113.971 30.4084C113.724 30.5551 113.521 30.7651 113.384 31.0164C113.247 31.2677 113.181 31.5508 113.194 31.836C113.206 32.1212 113.295 32.3979 113.453 32.6369C113.61 32.8759 113.83 33.0684 114.089 33.194C114.32 33.3238 114.569 33.4199 114.827 33.4792C115.94 33.7732 117.086 33.928 118.238 33.9398M118.238 21.1959C119.004 21.2143 119.748 20.937 120.311 20.4226C120.875 19.9083 121.214 19.1971 121.258 18.4395C121.222 17.6882 120.895 16.9795 120.345 16.4608C119.795 15.942 119.064 15.653 118.305 15.6538C117.55 15.6526 116.824 15.9375 116.274 16.4501C115.725 16.9627 115.395 17.6641 115.352 18.4103C115.373 19.1666 115.695 19.8839 116.248 20.4058C116.802 20.9276 117.541 21.2117 118.305 21.1959" fill="#11284B"/>
<path id="Vector_3" d="M91.2605 12.2465H95.4466V14.725H95.5278L95.6902 14.4911C96.2767 13.4355 97.1996 12.6019 98.3148 12.1204C99.4301 11.639 100.675 11.5368 101.855 11.8297C103.252 12.1101 104.519 12.8319 105.465 13.8868C106.412 14.9417 106.987 16.2724 107.104 17.6789C107.163 18.1764 107.193 18.6768 107.193 19.1778C107.193 22.3363 107.193 25.5095 107.193 28.6827V29.1579H102.948V28.6753C102.948 25.5899 102.948 22.4972 102.948 19.4117C102.995 18.6362 102.794 17.8657 102.374 17.2095C101.954 16.5533 101.336 16.0448 100.607 15.756C100.025 15.5199 99.3922 15.4327 98.767 15.5023C98.1418 15.572 97.5443 15.7963 97.0296 16.1546C96.5148 16.5129 96.0994 16.9936 95.8215 17.5526C95.5436 18.1115 95.4121 18.7307 95.4392 19.3532C95.4392 22.4606 95.4392 25.5606 95.4392 28.668V29.1433H91.2383L91.2605 12.2465Z" fill="#11284B"/>
<path id="Vector_4" d="M84.1809 12.2539H88.3966V29.18H84.1809V26.7014H84.0849C84.0185 26.811 83.9446 26.9134 83.8856 27.0304C83.2881 28.0527 82.3761 28.859 81.2829 29.3313C80.1896 29.8035 78.9725 29.9171 77.8094 29.6552C76.412 29.3706 75.1443 28.6482 74.1936 27.5948C73.243 26.5414 72.6598 25.213 72.5306 23.8061C72.4741 23.2571 72.447 22.7055 72.4494 22.1537C72.4494 19.039 72.4494 15.9243 72.4494 12.8096V12.327H76.6651C76.6651 12.4806 76.6651 12.6268 76.6651 12.773V22.0805C76.6381 22.6824 76.7583 23.2819 77.0154 23.828C77.2724 24.374 77.6588 24.8506 78.1416 25.2172C78.6691 25.6401 79.306 25.9076 79.9797 25.989C80.6533 26.0705 81.3365 25.9626 81.9512 25.6778C82.5723 25.4375 83.1109 25.0261 83.5034 24.4923C83.8959 23.9585 84.1259 23.3246 84.1661 22.6655C84.1993 22.3595 84.2141 22.0519 84.2104 21.7442C84.2104 18.7685 84.2104 15.7927 84.2104 12.8242L84.1809 12.2539Z" fill="#11284B"/>
<path id="Vector_5" d="M134.097 12.2319H129.918V29.1799H134.097V12.2319Z" fill="#11284B"/>
<path id="Vector_6" d="M129.41 6.28037C129.412 5.9472 129.48 5.61765 129.611 5.31057C129.741 5.00349 129.932 4.72489 130.171 4.49066C130.41 4.25643 130.694 4.07115 131.005 3.94542C131.317 3.8197 131.65 3.75598 131.987 3.75791C132.327 3.75501 132.665 3.81854 132.98 3.94484C133.296 4.07115 133.583 4.25778 133.826 4.49405C134.068 4.73032 134.262 5.01159 134.395 5.32186C134.528 5.63212 134.597 5.96531 134.6 6.30233C134.581 6.97535 134.297 7.61428 133.809 8.0828C133.321 8.55132 132.667 8.81233 131.987 8.81016C131.307 8.8121 130.653 8.54689 130.17 8.07267C129.687 7.59846 129.414 6.95392 129.41 6.28037Z" fill="#11284B"/>
<path id="Vector_7" d="M148.64 23.828L152.206 25.0782C151.707 26.0645 150.981 26.9209 150.087 27.5787C146.809 30.0354 140.866 29.7064 138.009 26.8476C135.38 24.1862 134.93 20.9619 136.133 17.5767C137.337 14.1914 139.987 12.678 143.435 12.327C147.319 11.9176 150.545 13.5261 152.155 16.6262C152.973 18.4006 153.297 20.3597 153.092 22.2999H140.216C140.269 22.9273 140.507 23.5255 140.901 24.0197C141.295 24.5138 141.827 24.882 142.431 25.0782C144.174 25.7436 147.149 25.8094 148.648 23.8572M148.648 18.9512C148.485 17.2988 146.691 16.0266 144.617 15.9754C142.542 15.9243 140.386 17.2988 140.342 18.9512H148.648Z" fill="#11284B"/>
<g id="Clip path group">
<mask id="mask0_74_400" style="mask-type:luminance" maskUnits="userSpaceOnUse" x="0" y="0" width="160" height="42">
<g id="clip-path">
<path id="Vector_8" d="M159.538 0H0V41.4487H159.538V0Z" fill="white"/>
</g>
</mask>
<g mask="url(#mask0_74_400)">
<g id="Group">
<path id="Vector_9" d="M2.52734 11.8008L18.1275 20.7282L33.7278 11.8008L18.1275 2.88086L2.52734 11.8008Z" fill="#11284B"/>
<path id="Vector_10" d="M18.1261 41.456L0.015625 31.0883V10.3677L18.1408 0L36.266 10.3677V31.0883L18.1261 41.456ZM3.39703 29.1508L18.1261 37.5444L32.892 29.1215V12.3052L18.1261 3.88239L3.39703 12.3052V29.1508Z" fill="#11284B"/>
<path id="Vector_11" d="M2.52734 11.8008L18.1275 20.7282L33.7278 11.8008L18.1275 2.88086L2.52734 11.8008Z" fill="#00BED6"/>
<path id="Vector_12" d="M18.1261 41.456L0.015625 31.0883V10.3677L18.1408 0L36.266 10.3677V31.0883L18.1261 41.456ZM3.39703 29.1508L18.1261 37.5444L32.892 29.1215V12.3052L18.1261 3.88239L3.39703 12.3052V29.1508Z" fill="#11284B"/>
</g>
</g>
</g>
<path id="Vector_13" d="M69.5325 4.71582H65.3242V30.1378H69.5325V4.71582Z" fill="#11284B"/>
<path id="Vector_14" d="M155.582 3.55322C156.631 3.559 157.635 3.97473 158.376 4.71001C159.117 5.44529 159.535 6.44062 159.539 7.47948C159.529 8.51589 159.109 9.50718 158.369 10.2401C157.629 10.973 156.628 11.3889 155.582 11.3984C154.533 11.3946 153.528 10.9807 152.785 10.2468C152.043 9.5129 151.623 8.51833 151.617 7.47948C151.623 6.43995 152.043 5.44463 152.785 4.70956C153.527 3.97449 154.532 3.55898 155.582 3.55322ZM155.582 10.6892C156.009 10.6962 156.433 10.6178 156.829 10.4589C157.225 10.2999 157.585 10.0637 157.887 9.76413C158.188 9.46459 158.426 9.1079 158.586 8.71539C158.745 8.32287 158.824 7.90254 158.816 7.47948C158.825 7.0558 158.747 6.63467 158.588 6.24129C158.429 5.84792 158.191 5.49038 157.889 5.19005C157.588 4.88972 157.228 4.65278 156.831 4.4934C156.435 4.33401 156.01 4.25544 155.582 4.26241C155.154 4.25544 154.729 4.33401 154.333 4.4934C153.936 4.65278 153.576 4.88972 153.274 5.19005C152.972 5.49038 152.735 5.84792 152.576 6.24129C152.416 6.63467 152.339 7.0558 152.348 7.47948C152.34 7.90254 152.418 8.32287 152.578 8.71539C152.737 9.1079 152.975 9.46459 153.277 9.76413C153.579 10.0637 153.938 10.2999 154.334 10.4589C154.73 10.6178 155.155 10.6962 155.582 10.6892ZM154.105 5.10325H155.988C156.19 5.08918 156.394 5.11659 156.585 5.18376C156.776 5.25092 156.951 5.35638 157.1 5.49359C157.248 5.63081 157.366 5.79683 157.446 5.98126C157.527 6.16569 157.568 6.36459 157.568 6.56554C157.545 6.956 157.37 7.32235 157.079 7.58707C156.788 7.85179 156.405 7.99412 156.01 7.98397L157.487 9.58518L157.339 9.78988H156.601L155.013 7.98397V9.76065H154.172L154.105 5.10325ZM155.951 7.187C156.379 7.187 156.689 6.98231 156.689 6.529C156.689 6.07568 156.342 5.87826 155.951 5.87826H154.947V7.187H155.951Z" fill="#11284B"/>
</g>
<defs>
<clipPath id="clip0_74_400">
<rect width="159.538" height="41.4487" fill="white"/>
</clipPath>
</defs>
</svg>
