<svg xmlns="http://www.w3.org/2000/svg" width="21" height="21" viewBox="0 0 21 21" fill="none">
  <path d="M10.3499 3.20891C12.664 3.20891 12.9378 3.21824 13.8519 3.26167C14.6968 3.30188 15.1557 3.44906 15.4611 3.5729C15.838 3.7177 16.1789 3.94894 16.4588 4.24955C16.7469 4.54154 16.9685 4.89728 17.1072 5.29055C17.2259 5.60931 17.367 6.08817 17.4055 6.96979C17.4471 7.92357 17.4561 8.2093 17.4561 10.6241C17.4561 13.0388 17.4471 13.3246 17.4055 14.2783C17.367 15.16 17.2259 15.6388 17.1072 15.9576C16.9629 16.3475 16.742 16.7016 16.4588 16.9971C16.1755 17.2927 15.8362 17.5232 15.4625 17.6738C15.157 17.7976 14.6981 17.9448 13.8532 17.985C12.9396 18.0285 12.6654 18.0378 10.3512 18.0378C8.03709 18.0378 7.76292 18.0285 6.84923 17.985C6.00434 17.9448 5.54544 17.7976 5.23996 17.6738C4.86308 17.529 4.52215 17.2978 4.24233 16.9971C3.95424 16.7052 3.73264 16.3494 3.59387 15.9561C3.47519 15.6374 3.33415 15.1585 3.29562 14.2769C3.25399 13.3231 3.24505 13.0374 3.24505 10.6226C3.24505 8.20787 3.25399 7.92213 3.29562 6.96836C3.33415 6.08674 3.47519 5.60788 3.59387 5.28911C3.73264 4.89585 3.95424 4.5401 4.24233 4.24811C4.52215 3.9475 4.86308 3.71626 5.23996 3.57146C5.54544 3.44762 6.00434 3.30044 6.84923 3.26024C7.76326 3.2168 8.03709 3.20747 10.3512 3.20747L10.3499 3.20891ZM10.3512 1.57812C7.99753 1.57812 7.70237 1.58854 6.77802 1.63269C5.85367 1.67684 5.22413 1.83084 4.67372 2.05411C4.0953 2.28132 3.57126 2.63729 3.13806 3.09727C2.69725 3.54931 2.35611 4.09613 2.13837 4.69969C1.9244 5.27404 1.77785 5.93238 1.73588 6.89477C1.69391 7.85716 1.68359 8.16658 1.68359 10.6226C1.68359 13.0787 1.69357 13.3867 1.73588 14.3512C1.7782 15.3157 1.9244 15.9712 2.13837 16.5456C2.3562 17.1489 2.69734 17.6954 3.13806 18.1473C3.57112 18.6075 4.09519 18.9636 4.67372 19.1908C5.22413 19.4144 5.85504 19.5673 6.77733 19.6111C7.69962 19.6549 7.99684 19.6657 10.3505 19.6657C12.7043 19.6657 12.9994 19.6553 13.9238 19.6111C14.8481 19.567 15.4756 19.4144 16.026 19.1908C16.6019 18.9586 17.1249 18.6033 17.5615 18.1478C17.998 17.6923 18.3385 17.1465 18.561 16.5456C18.7753 15.9712 18.9219 15.3129 18.9638 14.3505C19.0058 13.3881 19.0161 13.078 19.0161 10.6219C19.0161 8.16587 19.0062 7.85787 18.9638 6.89333C18.9215 5.92879 18.7753 5.27404 18.561 4.69969C18.3434 4.09633 18.0024 3.54973 17.5617 3.09799C17.1285 2.63775 16.6045 2.28153 16.026 2.05411C15.4756 1.83084 14.8447 1.67792 13.9224 1.63412C13.0001 1.59033 12.7036 1.57956 10.3499 1.57956L10.3512 1.57812Z" fill="#11284B"/>
  <path d="M10.3524 5.979C9.4723 5.979 8.61192 6.25135 7.8801 6.76159C7.14829 7.27183 6.57791 7.99706 6.24109 8.84556C5.90427 9.69407 5.81615 10.6277 5.98785 11.5285C6.15956 12.4293 6.58339 13.2567 7.20575 13.9061C7.82811 14.5555 8.62104 14.9978 9.48427 15.1769C10.3475 15.3561 11.2423 15.2642 12.0554 14.9127C12.8686 14.5612 13.5636 13.9661 14.0526 13.2024C14.5415 12.4388 14.8025 11.541 14.8025 10.6226C14.8026 10.0128 14.6875 9.40892 14.4639 8.84551C14.2403 8.2821 13.9125 7.77018 13.4992 7.33897C13.086 6.90777 12.5954 6.56572 12.0555 6.33238C11.5155 6.09903 10.9369 5.97896 10.3524 5.979ZM10.3524 13.6379C9.78092 13.6379 9.22223 13.4611 8.74703 13.1297C8.27182 12.7984 7.90145 12.3275 7.68273 11.7765C7.46402 11.2255 7.4068 10.6192 7.51829 10.0343C7.62979 9.44941 7.90501 8.91214 8.30914 8.49044C8.71326 8.06874 9.22816 7.78156 9.7887 7.66521C10.3492 7.54886 10.9303 7.60858 11.4583 7.8368C11.9863 8.06502 12.4376 8.4515 12.7551 8.94737C13.0726 9.44323 13.2421 10.0262 13.2421 10.6226C13.2421 11.4223 12.9377 12.1893 12.3958 12.7547C11.8538 13.3202 11.1188 13.6379 10.3524 13.6379Z" fill="#11284B"/>
  <path d="M14.9774 6.87978C15.5518 6.87978 16.0174 6.39394 16.0174 5.79463C16.0174 5.19531 15.5518 4.70947 14.9774 4.70947C14.4031 4.70947 13.9375 5.19531 13.9375 5.79463C13.9375 6.39394 14.4031 6.87978 14.9774 6.87978Z" fill="#11284B"/>
</svg>