<svg xmlns="http://www.w3.org/2000/svg" width="21" height="21" viewBox="0 0 21 21" fill="none">
  <path d="M18.4824 1.57275H3.15308C2.80064 1.57275 2.46264 1.71276 2.21343 1.96197C1.96422 2.21118 1.82422 2.54918 1.82422 2.90161V18.2309C1.82488 18.5829 1.96518 18.9203 2.21431 19.169C2.46345 19.4176 2.80107 19.5573 3.15308 19.5573H18.4824C18.8344 19.5573 19.172 19.4176 19.4212 19.169C19.6703 18.9203 19.8106 18.5829 19.8113 18.2309V2.90161C19.8113 2.54918 19.6713 2.21118 19.4221 1.96197C19.1728 1.71276 18.8348 1.57275 18.4824 1.57275ZM7.18461 16.8946H4.48194V8.30447H7.18461V16.8946ZM5.83327 7.11549C5.5261 7.1145 5.22611 7.02248 4.97121 6.85105C4.71632 6.67962 4.51796 6.43648 4.40121 6.15236C4.28445 5.86823 4.25454 5.55587 4.31526 5.25475C4.37597 4.95363 4.52458 4.67727 4.74232 4.46058C4.96005 4.2439 5.23712 4.09662 5.53853 4.03736C5.83994 3.9781 6.15215 4.00951 6.43571 4.12763C6.71927 4.24575 6.96145 4.44528 7.13165 4.701C7.30185 4.95671 7.39243 5.25715 7.39194 5.56432C7.39499 5.76951 7.35671 5.9732 7.27937 6.16327C7.20202 6.35334 7.08721 6.5259 6.94175 6.67065C6.7963 6.8154 6.6232 6.92939 6.43276 7.00581C6.24232 7.08224 6.03844 7.11954 5.83327 7.11549ZM17.1535 16.9021H14.4484V12.2111C14.4484 10.8248 13.8589 10.4002 13.0995 10.4002C12.2977 10.4002 11.5109 11.0022 11.5109 12.2436V16.9021H8.81072V8.31196H11.411V9.50094H11.4509C11.7172 9.05884 12.0946 8.69413 12.5455 8.44304C12.9964 8.19195 13.5052 8.06323 14.0212 8.06967C15.52 8.06967 17.161 8.9664 17.161 11.5891L17.1535 16.9021Z" fill="#11284B"/>
</svg>