<svg xmlns="http://www.w3.org/2000/svg" width="21" height="21" viewBox="0 0 21 21" fill="none">
  <g clip-path="url(#clip0_98_100)">
    <path d="M10.0977 0.44873C4.57502 0.44873 0.0976562 4.9261 0.0976562 10.4487C0.0976562 14.6874 2.7314 18.3088 6.45157 19.7656C6.36103 18.9755 6.28696 17.7574 6.48449 16.8932C6.66556 16.1113 7.65321 11.922 7.65321 11.922C7.65321 11.922 7.35691 11.3212 7.35691 10.4405C7.35691 9.04955 8.1635 8.01252 9.16761 8.01252C10.0236 8.01252 10.4351 8.65449 10.4351 9.41992C10.4351 10.2759 9.89189 11.5598 9.60383 12.7533C9.36515 13.7491 10.1059 14.564 11.0853 14.564C12.8631 14.564 14.2293 12.6874 14.2293 9.98783C14.2293 7.59276 12.5092 5.92198 10.0483 5.92198C7.20054 5.92198 5.52975 8.05367 5.52975 10.2594C5.52975 11.1154 5.85897 12.0372 6.2705 12.5393C6.3528 12.638 6.36103 12.7286 6.33634 12.8273C6.26227 13.1401 6.08943 13.8232 6.0565 13.9631C6.01535 14.1442 5.90836 14.1854 5.71906 14.0948C4.46803 13.5105 3.68613 11.6915 3.68613 10.2183C3.68613 7.06602 5.9742 4.1689 10.2952 4.1689C13.7602 4.1689 16.4598 6.63803 16.4598 9.94667C16.4598 13.3952 14.287 16.1689 11.2746 16.1689C10.2623 16.1689 9.30753 15.6421 8.98654 15.0166C8.98654 15.0166 8.48449 16.9261 8.36103 17.3952C8.13881 18.2677 7.52975 19.3541 7.11823 20.0208C8.0565 20.3088 9.04416 20.4652 10.0812 20.4652C15.6038 20.4652 20.0812 15.9878 20.0812 10.4652C20.0977 4.9261 15.6203 0.44873 10.0977 0.44873Z" fill="#11284B"/>
  </g>
  <defs>
    <clipPath id="clip0_98_100">
      <rect width="20" height="20" fill="white" transform="translate(0.0976562 0.44873)"/>
    </clipPath>
  </defs>
</svg>