<svg xmlns="http://www.w3.org/2000/svg" width="18" height="14" viewBox="0 0 18 14" fill="none">
  <path fill-rule="evenodd" clip-rule="evenodd" d="M17.4358 3.60916C17.4358 3.60916 17.2654 2.34277 16.7433 1.7851C16.0807 1.05283 15.338 1.04938 14.9977 1.00688C12.5597 0.820801 8.90258 0.820801 8.90258 0.820801H8.89495C8.89495 0.820801 5.23786 0.820801 2.79979 1.00688C2.45896 1.04938 1.71687 1.05283 1.05373 1.7851C0.531595 2.34277 0.361725 3.60916 0.361725 3.60916C0.361725 3.60916 0.1875 5.09667 0.1875 6.5836V7.97807C0.1875 9.46558 0.361725 10.9525 0.361725 10.9525C0.361725 10.9525 0.531595 12.2189 1.05373 12.7766C1.71687 13.5088 2.58745 13.4859 2.9751 13.5623C4.36891 13.7035 8.89877 13.7472 8.89877 13.7472C8.89877 13.7472 12.5597 13.7415 14.9977 13.5554C15.338 13.5123 16.0807 13.5088 16.7433 12.7766C17.2654 12.2189 17.4358 10.9525 17.4358 10.9525C17.4358 10.9525 17.61 9.46558 17.61 7.97807V6.5836C17.61 5.09667 17.4358 3.60916 17.4358 3.60916ZM7.0999 9.66776L7.09935 4.50398L11.8067 7.09477L7.0999 9.66776Z" fill="#11284B"/>
</svg>